
<svg width="189px" height="38px" viewBox="0 0 189 38" version="1.1" xmlns="http://www.w3.org/2000/svg" xmlns:xlink="http://www.w3.org/1999/xlink">
    <!-- Generator: Sketch 49.3 (51167) - http://www.bohemiancoding.com/sketch -->
    <desc>Created with Sketch.</desc>
    <defs></defs>
    <g id="Page-1" stroke="none" stroke-width="1" fill="none" fill-rule="evenodd">
        <g id="index-menu-category" transform="translate(-32.000000, -30.000000)">
            <g id="made-in." transform="translate(30.000000, 30.000000)">
                <text id="made" font-family="HiraginoSans-W8, Hiragino Sans" font-size="40" font-weight="600" fill="#000000">
                    <tspan x="0" y="35">made </tspan>
                </text>
                <g id="maid-in.-logo" stroke-width="1" fill-rule="evenodd" transform="translate(141.000000, 0.000000)" fill="#1E1E1E">
                    <path d="M0.412987013,11.1644 L9.64155844,11.1644 C9.37662338,12.9301333 9.28831169,14.6528 9.28831169,17.6674667 L9.28831169,30.932 C9.28831169,33.2576 9.42077922,35.5832 9.64155844,37.4350667 L0.412987013,37.4350667 C0.677922078,35.3248 0.766233766,33.6882667 0.766233766,30.932 L0.766233766,17.6674667 C0.766233766,14.8681333 0.677922078,13.1024 0.412987013,11.1644 Z M20.2155844,37.4350667 L11.0753247,37.4350667 C11.3402597,35.4109333 11.4285714,33.6021333 11.4285714,30.932 L11.4285714,17.6674667 C11.4285714,14.6958667 11.3402597,12.8870667 11.0753247,11.1644 L19.8623377,11.1644 L19.8623377,12.9732 C19.8623377,13.2316 19.8181818,13.8776 19.8181818,14.1790667 C22.6,11.5950667 25.2935065,10.5184 28.9142857,10.5184 C31.961039,10.5184 34.3896104,11.3366667 36.0233766,12.9301333 C37.7896104,14.6528 38.5402597,16.7630667 38.5402597,20.1653333 L38.5402597,30.9750667 C38.5402597,33.4729333 38.6727273,35.6262667 38.8935065,37.4350667 L29.7090909,37.4350667 C29.974026,35.3678667 30.0623377,33.5590667 30.0623377,30.932 L30.0623377,22.1033333 C30.0623377,20.3806667 29.8857143,19.6485333 29.3558442,18.9164 C28.7818182,18.1412 27.7662338,17.7105333 26.4415584,17.7105333 C23.9688312,17.7105333 21.761039,19.2178667 19.8623377,22.2325333 L19.8623377,30.932 C19.8623377,33.3868 19.9506494,35.1956 20.2155844,37.4350667 Z M40.6727273,28.8850667 L49.5922078,28.8850667 L49.5922078,37.5845333 L40.6727273,37.5845333 L40.6727273,28.8850667 Z M0.610389351,0.385066667 L9.52986987,0.385066667 L9.52986987,9.08453333 L0.610389351,9.08453333 L0.610389351,0.385066667 Z" id="in." fill-rule="nonzero"></path>
                </g>
            </g>
        </g>
    </g>
</svg>