
<svg width="28px" height="24px" viewBox="0 0 28 24" version="1.1" xmlns="http://www.w3.org/2000/svg" xmlns:xlink="http://www.w3.org/1999/xlink">
    <!-- Generator: Sketch 49.3 (51167) - http://www.bohemiancoding.com/sketch -->
    <desc>Created with Sketch.</desc>
    <defs></defs>
    <g id="Page-1" stroke="none" stroke-width="1" fill="none" fill-rule="evenodd">
        <g id="index-menu" transform="translate(-1487.000000, -145.000000)" fill="#FFFFFF" fill-rule="nonzero">
            <g id="if_03-twitter_104501" transform="translate(1487.000000, 145.000000)">
                <path d="M28,2.74302016 C26.9706676,3.20896893 25.8628991,3.52326729 24.7005663,3.66392015 C25.8873394,2.94039721 26.7973124,1.79433688 27.2264377,0.427167942 C26.1163957,1.09801841 24.8875627,1.58480464 23.5785884,1.84758817 C22.5310679,0.710788933 21.0379392,0 19.3856647,0 C16.2135477,0 13.6416377,2.61915303 13.6416377,5.85011706 C13.6416377,6.30796237 13.6922234,6.75423132 13.7905527,7.18313571 C9.01617847,6.93887437 4.78289995,4.61028815 1.94953616,1.07081395 C1.4550474,1.93441092 1.17199521,2.93923958 1.17199521,4.0123688 C1.17199521,6.04170593 2.18598137,7.8325699 3.7274222,8.88138875 C2.78618842,8.85071138 1.90008729,8.58734903 1.12538822,8.14918354 C1.12481984,8.17349391 1.12481984,8.1983831 1.12481984,8.22327229 C1.12481984,11.0571669 3.10504841,13.4210611 5.73322778,13.9593621 C5.25124333,14.0924903 4.74368187,14.1642638 4.21963746,14.1642638 C3.84905507,14.1642638 3.48927187,14.1277983 3.13858271,14.0589189 C3.87008505,16.3828746 5.99127134,18.0747606 8.50463837,18.1216449 C6.53861925,19.6908214 4.06219678,20.6261919 1.37035909,20.6261919 C0.907131113,20.6261919 0.449586911,20.5984086 0,20.5439997 C2.54292268,22.2046295 5.56214603,23.1724138 8.80587865,23.1724138 C19.372592,23.1724138 25.1501533,14.2586112 25.1501533,6.52791334 C25.1501533,6.27439091 25.1450379,6.02144729 25.1342387,5.77024012 C26.2562166,4.94716043 27.2304163,3.91628495 28,2.74302016 Z" id="Shape"></path>
            </g>
        </g>
    </g>
</svg>